<svg xmlns="http://www.w3.org/2000/svg" width="93" height="33" fill="none"><g clip-path="url(#a)"><path fill="url(#b)" d="M26.892 11.548V6.21l-.162-.093.003-.007-4.413-2.48-.015-.007-.17-.096-.17.096L8.849 11.02l-.004-.003-.166.1-.17.095v.007l-4.403 2.634v5.405l13.227 7.576v.004l.177.096.166.096.003-.003 4.45 2.437 4.753-2.704.015-15.146v-.067zM4.784 14.626l12.61 7.135v4.338l-12.61-7.224zm17.012 4.954v4.263l-3.717 2.17v-4.256zm-8.21-5.395 3.767-2.15-.025 4.264-3.742 2.131zm8.539-4.858 3.741 2.103-3.73 2.125-3.775-2.085zm.01-5.02 3.731 2.099-12.615 7.192-3.728-2.185zm-9.231 9.874v4.246l-3.717-2.143V12zm4.81 2.673 3.75 2.135-3.731 2.185-3.814-2.157zm.297-.605.029-4.185 3.756 2.07-.004 4.268zM22.8 8.932l3.41-1.943v3.861zM8.505 15.953l-3.388-1.918 3.388-2.028zm13.28 8.68-.003 3.878-3.424-1.875zm.68 3.868.003-4.267.01-.007v-5.434l-.003-.003.003-4.659 3.731-2.124-.014 14.366z"/><path fill="#000" d="M39.932 9.55c1.286.348 2.148 1.184 2.148 2.787 0 1.9-1.171 3.155-3.581 3.155h-4.7V4.239h3.7c2.468 0 3.764 1.167 3.764 3.084-.005.99-.438 1.8-1.331 2.226m-2.41-3.372h-1.437v2.648h1.543c1.013 0 1.455-.592 1.455-1.355-.005-.749-.504-1.293-1.561-1.293m.535 7.314c1.282 0 1.724-.68 1.724-1.412 0-.749-.433-1.455-1.768-1.455h-1.928v2.867zm5.058 2V3.529h2.3v11.963zm7.663.156c-2.587 0-4.448-1.55-4.448-4.164 0-2.601 1.848-4.152 4.448-4.152 2.617 0 4.457 1.55 4.457 4.152 0 2.614-1.849 4.164-4.457 4.164m-.022-1.786c1.322 0 2.22-.95 2.22-2.383s-.903-2.383-2.22-2.383c-1.274 0-2.167.95-2.167 2.383s.893 2.383 2.167 2.383m9.068 1.778c-2.551 0-4.355-1.673-4.355-4.16 0-2.493 1.804-4.152 4.355-4.152 2.056 0 3.595 1.05 3.993 2.945l-2.105.226c-.252-.958-.955-1.403-1.914-1.403-1.225 0-2.056.95-2.056 2.383 0 1.425.831 2.383 2.056 2.383.955 0 1.658-.453 1.914-1.402l2.105.226c-.398 1.895-1.977 2.954-3.993 2.954m10.223-.148-2.618-3.364h-.473v3.364h-2.299V3.529h2.3v7.04h.428l2.551-3.085h2.578l-3.201 3.717 3.502 4.29zM39.932 22.37c.893-.426 1.327-1.237 1.327-2.226 0-1.916-1.296-3.084-3.763-3.084h-3.701v11.253h4.709c2.41 0 3.581-1.255 3.581-3.154-.004-1.604-.862-2.436-2.153-2.788m-3.847-3.262H37.5c1.044 0 1.535.535 1.535 1.272 0 .753-.438 1.333-1.433 1.333h-1.517zm1.946 7.205h-1.946V23.49h1.902c1.317 0 1.742.697 1.742 1.433 0 .724-.438 1.39-1.698 1.39m10.466-6.003h2.277v8.007h-2.158l-.057-.967c-.57.71-1.473 1.12-2.587 1.12-1.954 0-3.029-1.007-3.029-2.771v-5.39h2.286v4.906c0 1.058.672 1.45 1.464 1.45.942 0 1.795-.465 1.804-1.938zm5.013-1.203c-.721 0-1.322-.575-1.322-1.293 0-.71.6-1.286 1.322-1.286.703 0 1.304.575 1.304 1.286 0 .718-.597 1.293-1.304 1.293m1.132 1.203h-2.29v8.007h2.29zm3.878-3.96h-2.3v11.962h2.3zm7.34 0v4.922c-.483-.723-1.424-1.12-2.49-1.12-2.136 0-3.913 1.56-3.913 4.174 0 2.619 1.769 4.174 3.913 4.174 1.105 0 2.087-.445 2.551-1.229l.058 1.046h2.158V16.35zm-1.968 10.29c-1.212 0-2.158-.88-2.158-2.314 0-1.442.95-2.322 2.158-2.322 1.203 0 2.149.92 2.149 2.322s-.942 2.314-2.15 2.314m9.442-6.505c-2.507 0-4.267 1.542-4.267 4.174 0 2.631 1.716 4.16 4.338 4.16 1.826 0 3.29-.928 3.825-2.548l-2.087-.305c-.31.71-.942 1.08-1.756 1.08-1.083 0-1.985-.64-2.078-1.97h6.022l.023-.535c-.005-2.801-1.72-4.056-4.02-4.056m-1.959 3.132c.222-1.067.942-1.542 1.977-1.542.933 0 1.636.523 1.755 1.542zm9.116-1.69c.412-.71 1.477-1.363 2.658-1.363v2.004c-1.725 0-2.547.497-2.547 2.195v3.904h-2.29V20.31h2.18zm6.076 6.893c-1.826 0-3.241-.71-3.533-2.227l1.906-.531c.243.858.862 1.193 1.627 1.193.562 0 1.172-.17 1.154-.801-.009-.832-1.287-.902-2.578-1.355-.972-.336-1.905-.85-1.905-2.196 0-1.642 1.384-2.4 3.183-2.4 1.583 0 2.9.592 3.22 2.117l-1.765.388c-.243-.75-.783-1.01-1.446-1.01-.601 0-1.114.208-1.114.71 0 .63.942.753 1.959 1.027 1.255.336 2.63.872 2.63 2.588.005 1.834-1.583 2.496-3.338 2.496"/></g><defs><linearGradient id="b" x1="4.101" x2="22.719" y1="16.498" y2="16.498" gradientUnits="userSpaceOnUse"><stop stop-color="#26275F"/><stop offset=".14" stop-color="#813E96"/><stop offset=".29" stop-color="#2E64AF"/><stop offset=".5" stop-color="#3FAA49"/><stop offset=".71" stop-color="#F2E64A"/><stop offset=".86" stop-color="#F2903B"/><stop offset="1" stop-color="#ED4533"/></linearGradient><clipPath id="a"><path fill="#fff" d="M.521 0h92v33h-92z"/></clipPath></defs></svg>