<svg xmlns="http://www.w3.org/2000/svg" width="1453" height="746" fill="none"><g stroke="#fff" stroke-opacity=".3" stroke-width="1.858" clip-path="url(#a)" opacity=".3"><path d="m1373.69 569.267-1449.873.001M1373.69 381.603H-76.183M1373.69 193.939H-76.183M1373.69 6.275l-1449.873.001M72.012 1616.51V0M179.78 1616.51V0m107.768 1616.51L287.547 0m107.768 1616.51V0m107.767 1616.51V0M610.85 1616.51V0m107.767 1616.51V0m107.767 1616.51V0m107.768 1616.51V0m107.768 1616.51V0m107.77 1616.51V0m107.76 1616.51V0m107.77 1616.51V0"/></g><defs><clipPath id="a"><path fill="#fff" d="M0 0h1453v746H0z"/></clipPath></defs></svg>