<svg xmlns="http://www.w3.org/2000/svg" width="72" height="36" fill="none"><g clip-path="url(#a)"><g clip-path="url(#b)"><path fill="#120833" d="M15.012 25.983a.733.733 0 1 1 1.2.84l-4.615 6.592-.22.313h-9.2l.824-1.157 4.688-6.593a.733.733 0 0 1 1.194.85l-3.865 5.435h5.597zM32.364 1.289a.88.88 0 0 1 1.343.747v29.107a.88.88 0 0 1-1.335.752l-.11-.08-1.902-1.602a37.4 37.4 0 0 0-9.967-6.023l-1.04-.424H8.362v-9.084h1.465V22.3h3.81v-5.274H15.1V22.3h3.663V9.951l.443-.191 1.322-.567.657-.29a37.4 37.4 0 0 0 9.03-5.772l2.038-1.76zm22.293 28.849h-6.446v-6.446h6.446zM31.175 4.24a38.8 38.8 0 0 1-10.068 6.298l-.878.377V22.54l.717.293a38.8 38.8 0 0 1 10.359 6.26l.937.79V3.316zm18.5 24.433h3.517v-3.516h-3.516zm-10.028-7.11 4.62 4.62h3.359v1.466H43.66l-4.835-4.835h-3.432v-1.465h4.039zm30.834 4.18h-6.446v-6.446h6.446zM65.5 24.28h3.517v-3.517H65.5zM15.1 14.242h-1.464V11.9H3.306v10.4h2.638v1.465H1.842V10.434H15.1zm48.35-2.856h-3.494l-5.23 5.549 5.22 5.219h3.505v1.464h-4.113l-.214-.213-5.719-5.72H40.812V16.22h12.574l5.72-6.07.217-.229h4.126zm-23.88 7.179h-3.517v-3.517h3.516zm30.911-4.689h-6.446V7.43h6.446zM65.5 12.411h3.517V8.895H65.5zM47.626 7.43h-3.358l-4.621 4.62-.215.215h-4.04V10.8h3.433l4.835-4.835h3.966zm7.031 2.49h-6.446V3.474h6.446zm-4.981-1.465h3.516V4.94h-3.516z"/></g></g><defs><clipPath id="a"><path fill="#fff" d="M.521 0h71v36h-71z"/></clipPath><clipPath id="b"><path fill="#fff" d="M1.207.095h70.184v35.197H1.207z"/></clipPath></defs></svg>