<svg xmlns="http://www.w3.org/2000/svg" width="512" height="512" fill="none" viewBox="0 0 20 20"><path fill="currentColor" d="M10 7.5a2.5 2.5 0 1 0 0 5 2.5 2.5 0 0 0 0-5m0-1.667a4.166 4.166 0 1 1 .001 8.333 4.166 4.166 0 0 1 0-8.333m5.418-.209a1.042 1.042 0 0 1-2.084 0 1.042 1.042 0 0 1 2.084 0M10 3.334c-2.062 0-2.398.005-3.357.048-.654.03-1.092.118-1.499.276-.362.14-.622.308-.9.586-.28.279-.447.54-.586.9-.159.409-.247.846-.277 1.499-.043.92-.048 1.241-.048 3.357 0 2.062.006 2.398.048 3.357.031.653.119 1.092.277 1.498.14.362.308.624.585.9.28.28.54.448.9.586.411.16.849.247 1.5.278.92.043 1.241.048 3.357.048 2.062 0 2.398-.006 3.357-.048.652-.031 1.09-.12 1.498-.277a2.4 2.4 0 0 0 .9-.585c.28-.28.448-.54.586-.9.16-.41.247-.849.277-1.5.043-.92.049-1.241.049-3.357 0-2.062-.006-2.398-.049-3.357-.03-.652-.119-1.092-.276-1.499a2.4 2.4 0 0 0-.586-.9 2.4 2.4 0 0 0-.901-.586c-.408-.158-.846-.246-1.498-.276-.92-.044-1.241-.049-3.357-.049m0-1.667c2.264 0 2.546.008 3.435.05.887.04 1.492.181 2.023.387a4.1 4.1 0 0 1 1.477.961c.462.464.748.929.96 1.477.206.53.346 1.136.388 2.023.04.889.05 1.171.05 3.435s-.008 2.547-.05 3.435c-.04.887-.182 1.492-.387 2.023a4.1 4.1 0 0 1-.961 1.477c-.464.462-.93.748-1.477.96-.531.207-1.136.347-2.023.388-.889.04-1.171.05-3.435.05s-2.547-.008-3.436-.05c-.886-.04-1.49-.181-2.023-.387a4.1 4.1 0 0 1-1.476-.961 4.1 4.1 0 0 1-.961-1.477c-.206-.53-.346-1.136-.388-2.023-.04-.888-.05-1.171-.05-3.435s.009-2.546.05-3.435c.041-.888.182-1.492.388-2.023a4.1 4.1 0 0 1 .961-1.477 4.1 4.1 0 0 1 1.476-.96c.532-.207 1.136-.347 2.023-.388.89-.04 1.172-.05 3.436-.05"/></svg>