<svg xmlns="http://www.w3.org/2000/svg" width="20" height="20" fill="none"><path fill="#fff" d="M10.001 7.5a2.5 2.5 0 1 0 0 5 2.5 2.5 0 0 0 0-5m0-1.667a4.166 4.166 0 1 1 0 8.333 4.166 4.166 0 0 1 0-8.333m5.417-.209a1.042 1.042 0 0 1-2.083 0 1.042 1.042 0 0 1 2.083 0m-5.417-2.29c-2.062 0-2.398.005-3.357.047-.653.031-1.091.119-1.498.277-.362.14-.623.308-.9.586-.28.279-.447.539-.587.9-.158.409-.246.846-.276 1.498-.043.92-.048 1.242-.048 3.358 0 2.062.005 2.398.048 3.357.03.653.118 1.092.276 1.498.14.362.309.624.585.9.28.28.541.448.9.586.412.16.85.247 1.5.277.92.043 1.242.049 3.357.049 2.062 0 2.399-.006 3.358-.049.651-.03 1.09-.118 1.497-.276a2.4 2.4 0 0 0 .9-.585c.28-.28.448-.541.587-.9.159-.41.247-.849.277-1.5.043-.92.048-1.241.048-3.357 0-2.062-.005-2.398-.048-3.357-.03-.652-.12-1.092-.277-1.499a2.4 2.4 0 0 0-.585-.9 2.4 2.4 0 0 0-.902-.586c-.407-.159-.845-.247-1.497-.277-.92-.043-1.242-.048-3.358-.048m0-1.667c2.264 0 2.547.008 3.436.05.886.04 1.491.18 2.023.387a4.1 4.1 0 0 1 1.476.961c.462.463.749.929.961 1.477.206.53.346 1.136.388 2.022.04.89.05 1.172.05 3.436s-.009 2.546-.05 3.435c-.041.887-.182 1.492-.388 2.023a4.1 4.1 0 0 1-.961 1.477 4.1 4.1 0 0 1-1.476.96c-.532.206-1.137.346-2.023.388-.89.04-1.172.05-3.436.05s-2.546-.008-3.435-.05c-.887-.04-1.491-.182-2.023-.387a4.1 4.1 0 0 1-1.476-.961 4.1 4.1 0 0 1-.962-1.477c-.206-.531-.345-1.136-.387-2.023-.04-.889-.05-1.171-.05-3.435s.008-2.547.05-3.436c.04-.887.181-1.491.387-2.022a4.1 4.1 0 0 1 .962-1.477 4.1 4.1 0 0 1 1.476-.961c.531-.206 1.135-.346 2.023-.388.889-.04 1.171-.05 3.435-.05"/></svg>