<svg xmlns="http://www.w3.org/2000/svg" width="99" height="23" fill="none"><g fill="#242931" clip-path="url(#a)"><path d="M33.322 2.338h.682v6.817h-.682zm4.228 1.831q.886 0 1.397.54t.512 1.456v2.99h-.643v-2.99q0-.654-.346-1.014-.347-.36-.978-.36-.703.001-1.14.443-.438.444-.438 1.369v2.552h-.643V4.284h.643v.76q.545-.875 1.636-.875"/><path fill-rule="evenodd" d="M44.899 4.91a2.4 2.4 0 0 0-1.778-.741q-1.298 0-1.968 1.072V2.338h-.643v6.817h.643V8.2q.673 1.073 1.968 1.073a2.42 2.42 0 0 0 1.778-.741q.733-.741.734-1.811 0-1.071-.734-1.811m-1.826 3.74q-.81-.001-1.365-.56a1.87 1.87 0 0 1-.555-1.37q0-.808.555-1.368.554-.56 1.365-.56.809 0 1.364.56.555.562.556 1.369 0 .808-.556 1.368-.555.56-1.364.56m7.523-.111q-.746.735-1.816.735t-1.817-.735-.746-1.817.746-1.816q.745-.735 1.817-.734 1.073 0 1.816.734.745.736.745 1.816t-.745 1.817m-3.18-.449q.554.56 1.364.56t1.364-.56q.556-.56.556-1.368 0-.807-.556-1.37a1.85 1.85 0 0 0-1.364-.56q-.81.001-1.364.56a1.87 1.87 0 0 0-.556 1.37q0 .808.556 1.368" clip-rule="evenodd"/><path d="M56.288 4.286h-.643v2.552q0 .925-.438 1.369-.437.442-1.14.442-.632 0-.978-.36-.347-.36-.347-1.013v-2.99H52.1v2.99q.001.916.512 1.456.51.54 1.397.54 1.09 0 1.636-.876v.761h.643zm3.448-.117q.886 0 1.397.54t.512 1.456v2.99h-.643v-2.99q0-.654-.346-1.014-.347-.36-.979-.36-.702.001-1.14.443-.438.444-.438 1.369v2.552h-.643V4.284h.643v.76q.546-.875 1.637-.875"/><path fill-rule="evenodd" d="M67.527 2.338h-.643V5.24q-.674-1.072-1.968-1.072a2.42 2.42 0 0 0-1.778.74q-.734.741-.734 1.812c0 .712.244 1.318.734 1.81q.735.742 1.778.742 1.295 0 1.968-1.073v.955h.643zm-2.56 6.311q-.81 0-1.365-.56a1.87 1.87 0 0 1-.556-1.368q0-.809.556-1.37.554-.559 1.364-.56.81.001 1.365.56.555.563.555 1.37t-.555 1.368q-.554.56-1.365.56" clip-rule="evenodd"/><path d="M74.983 7.924q.433-.441 1.018-.44.604.001 1.035.44.431.441.431 1.026t-.431 1.016a1.43 1.43 0 0 1-1.035.431 1.4 1.4 0 0 1-1.018-.431 1.4 1.4 0 0 1-.431-1.016q0-.585.431-1.026M71.457 8.93l-2.365.715v1.85L67.5 13.767h1.593v3.812q.001 1.887.998 2.62.998.732 3.435.457v-2.144q-.677.037-1.136.009t-.695-.247q-.238-.22-.237-.697v-3.812h2.07v-2.27h-2.07zm-19.703 3.592q.858-1.281 2.728-1.281l.002-.003q1.501 0 2.482 1.007.981 1.008.981 2.785v5.625h-2.364v-5.33c0-.61-.166-1.08-.495-1.402q-.495-.486-1.319-.486-.917 0-1.466.567-.55.57-.55 1.704v4.947H49.39v-9.16h2.364zm-16.875 4.141q0 .824-.495 1.3-.495.478-1.502.478-1.449 0-2.05-1.21l-2.18 1.247q1.21 2.438 4.233 2.437 1.978 0 3.242-1.118t1.264-3.134v-5.167h-2.51v5.167zm10.351-.22q0 1.136-.549 1.704t-1.464.567q-.825 0-1.319-.486t-.494-1.402v-5.33H39.04v5.624q0 1.779.98 2.786c.655.67 1.48 1.007 2.483 1.007q1.87 0 2.73-1.284v1.026h2.363v-9.16h-2.362v4.948zm31.963-4.947h-2.365v9.16h2.365z"/><path fill-rule="evenodd" d="M79.913 12.642q1.402-1.402 3.434-1.401t3.444 1.4q1.41 1.403 1.41 3.435t-1.41 3.435-3.444 1.402-3.434-1.402-1.402-3.434q0-2.033 1.402-3.435m3.434 5.963q1.062 0 1.777-.715.715-.713.714-1.814-.001-1.097-.714-1.813-.714-.715-1.777-.714-1.061 0-1.767.714t-.706 1.813.706 1.814 1.767.715" clip-rule="evenodd"/><path d="M97.077 12.247q-.981-1.005-2.482-1.006-1.87 0-2.729 1.281v-1.026h-2.364v9.16h2.364v-4.948q0-1.135.55-1.704.549-.568 1.466-.567.825 0 1.319.486.494.485.494 1.402v5.33h2.365V15.03q0-1.777-.98-2.785zm-33.141 6.321q.713 0 1.273-.32v-.003q.557-.32.832-.89l2.053 1.173a4.6 4.6 0 0 1-1.704 1.73 4.7 4.7 0 0 1-2.437.652q-2.071 0-3.454-1.392t-1.384-3.444 1.384-3.443q1.386-1.393 3.454-1.393 1.338 0 2.437.641.358.211.658.466l-1.364 1.944a2.1 2.1 0 0 0-.493-.396 2.44 2.44 0 0 0-1.255-.33q-1.062 0-1.759.707c-.464.47-.695 1.083-.695 1.804q0 1.082.695 1.787.696.706 1.759.706m-40.114-1.052c-.648-2.465-3.113-4.09-7.075-4.734a19 19 0 0 0-.754-.109 35 35 0 0 1 0-2.34 21 21 0 0 0 .752-.105h.002c3.96-.645 6.427-2.27 7.072-4.733q.118-.448.144-.896c.246-2.907-2.595-5.165-5.43-4.472-2.22.477-3.398 2.426-3.995 3.975-.452 1.157-.735 2.504-.9 3.87q-.564.021-1.158.022-.593 0-1.157-.021h-.002c-.166-1.367-.45-2.711-.9-3.87C9.826 2.551 8.647.602 6.428.125 3.593-.567.751 1.691.998 4.598q.027.446.143.896c.647 2.462 3.112 4.088 7.072 4.733h.002q.086.014.168.024.287.044.584.079c.022.762.026 1.55 0 2.34q-.387.048-.754.11c-3.96.644-6.425 2.27-7.072 4.735a4.8 4.8 0 0 0-.155 1.177c-.054 2.375 2.032 4.36 4.394 4.304 2.545.113 4.44-2.251 5.04-4.088.454-1.17.735-2.509.9-3.875a40 40 0 0 1 2.317 0c.166 1.364.447 2.704.9 3.875.604 1.837 2.496 4.2 5.044 4.088 2.362.059 4.448-1.929 4.393-4.304 0-.388-.05-.785-.155-1.177zM8.218 7.655h-.003c-.81-.15-1.534-.35-2.157-.596-1.4-.552-2.23-1.297-2.47-2.21a2 2 0 0 1-.05-.25c-.246-1.352 1.105-2.322 2.36-1.995 1.844.584 2.535 2.916 2.84 5.139a12 12 0 0 1-.518-.09zm-2.321 12.75c-1.201.283-2.406-.484-2.383-1.713 0-.172.027-.349.072-.532.24-.915 1.073-1.658 2.47-2.21a12 12 0 0 1 2.264-.616h.009q.201-.037.41-.068h.002c-.144.952-.36 1.874-.678 2.73-.543 1.406-1.27 2.217-2.166 2.411zm6.586-7.924q-.498 0-.977.013a34 34 0 0 0 0-1.981 36 36 0 0 0 1.95 0q-.009.376-.012.743-.006.606.013 1.238-.479-.012-.975-.013m6.583-9.877c1.256-.327 2.607.643 2.36 1.994a3 3 0 0 1-.05.25c-.24.916-1.072 1.66-2.469 2.21a12 12 0 0 1-2.157.598h-.003q-.255.047-.518.09c.305-2.226.996-4.556 2.84-5.14zm0 17.8c-.895-.193-1.625-1.004-2.166-2.41a13.6 13.6 0 0 1-.678-2.73h.002q.209.032.41.067h.009c.854.153 1.615.36 2.264.617 1.4.552 2.23 1.297 2.47 2.21q.07.274.071.532c.024 1.229-1.18 1.996-2.382 1.713z"/></g><defs><clipPath id="a"><path fill="#fff" d="M.521 0h98v23h-98z"/></clipPath></defs></svg>