<svg xmlns="http://www.w3.org/2000/svg" width="71" height="30" fill="none"><path fill="#fff" d="M60.889 11.788a1.23 1.23 0 0 0-.318-.612c-3.08-2.9-9.128-8.744-10.216-9.808L49.79.802c-1.472-1.043-2.922-1.156-4.326.18l-10.24 10.33c-.045-.045-.067-.09-.112-.136-3.058-2.9-9.13-8.744-10.194-9.808-.135-.136-.544-.566-.544-.566-1.472-1.043-2.922-1.156-4.326.18L.34 20.895c-.453.43-.453 1.155 0 1.608l.022.023a2534 2534 0 0 0 7.543 7.18 1.06 1.06 0 0 0 1.473-.022l16.604-16.808a9.5 9.5 0 0 1 2.22-1.699c.566-.317 1.518-.476 2.015-.34.431.114 2.493 1.269 3.557 1.971l-7.996 8.087c-.453.43-.453 1.155 0 1.608l.022.023 3.287 3.135c1.916 1.826 3.86 3.676 4.257 4.046a1.06 1.06 0 0 0 1.472-.023L51.42 12.875a9.5 9.5 0 0 1 2.22-1.699c.566-.34 1.518-.476 2.016-.34.228.06.936.43 1.709.867.687.388 1.424.83 1.915 1.15.116.076.245.131.381.156q.158.031.322.002h.022c.59-.09.974-.634.884-1.223m.611 2.537-6.252 6.252a1.88 1.88 0 0 0-.022 2.627l6.251 6.252c.748.725 1.926.725 2.651 0l6.251-6.229c.726-.747.726-1.925 0-2.65l-6.228-6.252c-.748-.725-1.926-.725-2.65 0"/></svg>