<svg xmlns="http://www.w3.org/2000/svg" width="89" height="50" fill="none"><path fill="#fff" d="M75.447 14.59a1.5 1.5 0 0 0-.392-.757C71.24 10.244 63.755 3.01 62.41 1.693l-.7-.701c-1.823-1.29-3.618-1.43-5.356.224L43.682 14.001c-.057-.056-.085-.112-.14-.168-3.786-3.589-11.3-10.822-12.617-12.14-.168-.168-.673-.701-.673-.701-1.823-1.29-3.617-1.43-5.355.224L.505 25.861c-.56.532-.56 1.43 0 1.99l.028.028C3 30.234 9.057 36.01 9.87 36.767a1.313 1.313 0 0 0 1.822-.028l20.552-20.803a11.7 11.7 0 0 1 2.747-2.103c.7-.393 1.879-.589 2.495-.42.533.14 3.085 1.57 4.402 2.438l-9.897 10.01c-.56.532-.56 1.43 0 1.99l.028.028 4.068 3.88c2.372 2.26 4.778 4.55 5.269 5.008a1.313 1.313 0 0 0 1.822-.028l20.55-20.803a11.8 11.8 0 0 1 2.748-2.103c.701-.42 1.879-.589 2.496-.42.281.073 1.158.532 2.114 1.072a48 48 0 0 1 2.371 1.423c.143.095.304.163.472.194q.196.037.398.002h.027a1.31 1.31 0 0 0 1.094-1.514m3.998 33.952.206-.028.076-.019a.8.8 0 0 0 .288-.15.6.6 0 0 0 .196-.252l.03-.116a.68.68 0 0 0-.31-.78 4.4 4.4 0 0 0-1.177-.505 8 8 0 0 1-.73-.28 3.2 3.2 0 0 1-.644-.421 1.75 1.75 0 0 1-.477-.617c-.14-.28-.196-.56-.168-.87a2.5 2.5 0 0 1 .055-.515c.032-.142.078-.282.142-.41.111-.28.307-.504.532-.7.252-.197.533-.365.841-.449a3.8 3.8 0 0 1 1.121-.168q.194 0 .391.016c.301.023.608.074.9.152.308.084.617.196.896.364l-.476 1.318-.098-.047-.128-.056a6 6 0 0 0-.475-.177c-.308-.084-.589-.14-.897-.112a1.57 1.57 0 0 0-.87.168c-.168.112-.28.309-.252.505 0 .112.028.252.084.336a.8.8 0 0 0 .281.252c.14.084.252.14.393.197.14.056.308.112.504.196l.314.124a17 17 0 0 1 .813.353l.073.04q.11.06.215.134.16.112.295.246.134.115.232.26.12.177.189.385c.084.28.14.589.14.897a1.89 1.89 0 0 1-.73 1.598 2 2 0 0 1-.488.291 3 3 0 0 1-.607.179q-.48.092-1.091.09c-.308 0-.589-.027-.897-.055a6 6 0 0 1-.701-.14l-.105-.034-.16-.05-.268-.084q-.086-.043-.182-.085a5 5 0 0 1-.182-.084l.477-1.318c.252.14.532.253.812.309a3.8 3.8 0 0 0 1.234.14q.191-.002.383-.028m-24.018.448c.617.674 1.542 1.01 2.748 1.01.505 0 .981-.056 1.458-.112.336-.084.672-.224.981-.393l-.448-1.345-.308.14a1.6 1.6 0 0 1-.393.14 1.5 1.5 0 0 1-.287.077l-.114.02-.104.015c-.196.028-.42.028-.644.028a2.4 2.4 0 0 1-.981-.196 1.6 1.6 0 0 1-.646-.505 1.9 1.9 0 0 1-.364-.757 3.3 3.3 0 0 1-.1-.617 5 5 0 0 1-.008-.518q.008-.146.026-.292c.028-.214.074-.426.138-.62a1.8 1.8 0 0 1 .448-.728c.168-.197.393-.337.645-.42.253-.085.505-.141.757-.141q.262 0 .508.036a5 5 0 0 1 .53.104q.209.061.404.133c.13.05.255.105.38.175l.477-1.345c-.056-.028-.14-.084-.28-.14l-.036-.021-.094-.047-.06-.026-.07-.028q-.106-.038-.217-.075a3 3 0 0 0-.672-.168c-.281-.028-.562-.056-.842-.056q-.798 0-1.514.252a3.7 3.7 0 0 0-.663.328c-.196.123-.38.266-.542.43a3.5 3.5 0 0 0-.423.51l-.072.11a3.4 3.4 0 0 0-.29.585 4.5 4.5 0 0 0-.28 1.626q0 .845.213 1.52c.16.514.41.953.74 1.312"/><path fill="#fff" fill-rule="evenodd" d="M19.625 42.374c1.122 0 1.963.196 2.551.589.59.392.898 1.009.898 1.85.028.449-.113.897-.364 1.262-.281.336-.617.617-1.038.757.14.168.308.392.476.645l.11.16c.13.191.257.377.367.597q.047.094.098.185.114.2.238.397l.008.013.133.218c.168.28.28.56.42.84h-1.85c-.14-.252-.28-.476-.42-.728s-.281-.505-.421-.73a9 9 0 0 0-.449-.672l-.127-.177a7 7 0 0 0-.294-.384h-.812v2.692h-1.654v-7.29c.352-.081.73-.11 1.084-.137l.037-.003a6.4 6.4 0 0 1 1.01-.084m.085 1.43h-.337l-.28.028v1.99h.476a3 3 0 0 0 .764-.053 3.4 3.4 0 0 0 .582-.17.795.795 0 0 0 .393-.814.78.78 0 0 0-.42-.757 2 2 0 0 0-.377-.143c-.251-.07-.526-.1-.801-.081" clip-rule="evenodd"/><path fill="#fff" d="M2.432 42.913a6 6 0 0 0-.245-.455H.617l-.024.198-.047.384-.06.475q-.037.286-.065.597l-.08.87c-.03.336-.06.678-.088 1.037-.057.673-.085 1.346-.141 1.99q-.042.49-.067.959l-.016.291-.02.43-.003.069L0 49.86h1.655q.04-1.094.083-2.355c.056-.841.113-1.682.168-2.552.113.28.253.617.42.982.169.364.31.729.478 1.093.168.365.308.701.449 1.038l.364.84h1.15l.364-.84c.14-.337.308-.673.449-1.038l.476-1.093c.14-.365.28-.673.42-.982.085.841.14 1.71.168 2.552.029.869.057 1.626.085 2.355h1.626l-.008-.169a48 48 0 0 0-.104-1.682c-.057-.672-.084-1.317-.14-1.99l-.02-.234L8 44.852l-.066-.74-.044-.467-.051-.471q-.044-.383-.102-.716H6.224a6 6 0 0 0-.274.515L5.936 43l-.008.018-.015.031-.011.023-.126.255c-.168.337-.365.73-.534 1.122l-.149.353-.162.384q-.105.247-.221.496-.15.328-.272.633l-.014.033-.023.056-.093.222-.102.234-.505-1.178-.176-.434a12 12 0 0 0-.357-.8c-.122-.244-.234-.489-.342-.72q-.096-.21-.19-.4z"/><path fill="#fff" fill-rule="evenodd" d="m14.592 49.466.068.208.059.186h1.738a125 125 0 0 0-.41-1.178l-.138-.392a40 40 0 0 0-.237-.645c-.252-.673-.504-1.318-.729-1.907a25 25 0 0 0-.53-1.308l-.17-.402a27 27 0 0 0-.702-1.57h-1.57q-.163.326-.325.66c-.14.292-.276.592-.403.91-.225.561-.477 1.122-.702 1.71l-.255.665q-.231.599-.473 1.242c-.142.377-.283.78-.429 1.2l-.039.111q-.153.443-.317.904h1.738c.084-.252.168-.505.252-.785s.196-.533.28-.813h2.888l.051.163.046.131.074.208q.059.161.11.31.063.192.125.392m-2.032-4.877c.085-.196.14-.337.168-.449l.025.075.04.098.01.019.01.03c.029.066.06.141.083.227l.225.645c.083.187.15.374.227.584l.006.018.076.21.336.926h-2.103c.112-.336.225-.617.336-.925s.225-.56.308-.813z" clip-rule="evenodd"/><path fill="#fff" d="M28.527 49.29c.142.198.275.384.378.57h1.991a21 21 0 0 0-1.57-2.243 12.7 12.7 0 0 0-1.71-1.766l.183-.178q.248-.244.488-.495.28-.29.549-.58l.378-.401c.495-.523.99-1.1 1.486-1.677l.028-.034h-1.963c-.309.332-.617.68-.955 1.06l-.278.314q-.215.242-.435.483l-.234.254-.509.545-.112.12v-2.776h-1.654v7.374h1.654v-3.112q.378.294.757.673c.252.252.504.532.729.813l.28.352q.112.144.22.288l.073.1.072.1zm3.323.57v-7.374h4.99v1.402h-3.336v1.458h2.944v1.374h-2.943v1.766h3.56v1.402zm11.915-5.972v-1.43h-6.084v1.43h2.215v5.972h1.654v-5.972z"/><path fill="#fff" fill-rule="evenodd" d="M52.344 49.86c-.084-.252-.168-.533-.253-.785l-.28-.813h-2.888l-.027.089-.028.08-.052.147c-.06.164-.121.325-.173.497-.084.28-.168.532-.252.785h-1.738q.165-.461.317-.904c.16-.46.313-.9.468-1.311l.258-.682.47-1.225c.253-.588.477-1.149.702-1.71q.157-.389.327-.75l.112-.234.103-.212.186-.374h1.57l.105.214.136.29.195.428q.143.318.293.638c.252.533.477 1.094.701 1.71.225.617.476 1.234.729 1.907s.505 1.402.785 2.215zm-1.99-5.72a3 3 0 0 1-.169.449l-.253.645-.053.151-.028.076c-.07.18-.149.37-.227.586l-.14.378c-.065.174-.131.351-.196.547h2.103l-.337-.925-.076-.21c-.078-.218-.146-.41-.232-.603l-.05-.115-.056-.146-.046-.122q-.046-.134-.1-.262a1 1 0 0 1-.048-.13l-.017-.061-.017-.068-.003-.01a1 1 0 0 0-.056-.18m15.004-1.622q.644.147 1.09.445c.588.392.87 1.009.87 1.85a2.03 2.03 0 0 1-.366 1.262 2.2 2.2 0 0 1-1.037.757c.14.168.308.392.476.645.168.252.337.476.477.757l.026.05.059.109q.117.21.248.418l.005.01.138.226q.069.112.126.226l.087.174.076.163q.064.139.132.278h-1.878c-.14-.253-.28-.477-.42-.73-.14-.252-.281-.504-.421-.728l-.17-.27a7 7 0 0 0-.28-.403l-.269-.368a5 5 0 0 0-.15-.193h-.813v2.692h-1.655v-7.29a5 5 0 0 1 .59-.094q.271-.028.532-.046a8 8 0 0 1 1.065-.084q.344 0 .652.024.44.036.81.12m-1.378 1.286h-.336l-.28.028v1.99h.476a3.2 3.2 0 0 0 1.346-.224c.28-.168.42-.476.392-.813a.79.79 0 0 0-.392-.757 2.5 2.5 0 0 0-1.206-.224m11.411 4.009c.197-.532.281-1.093.281-1.654s-.084-1.15-.28-1.654a3.45 3.45 0 0 0-.785-1.206 3.6 3.6 0 0 0-1.178-.729 4.2 4.2 0 0 0-1.43-.252c-.476 0-.953.084-1.402.252a2.9 2.9 0 0 0-1.177.73 3.2 3.2 0 0 0-.747 1.042l-.026.06-.04.103a3.6 3.6 0 0 0-.262.947 5 5 0 0 0-.047.707c0 .56.085 1.122.281 1.654.168.449.448.87.785 1.206a3.7 3.7 0 0 0 .866.594q.15.075.312.135c.448.168.953.252 1.429.252.505 0 .981-.084 1.458-.252a2.9 2.9 0 0 0 1.178-.73c.364-.336.617-.756.785-1.205m-5.293-.951a3 3 0 0 1-.04-.267 4 4 0 0 1-.022-.436c0-.336.029-.673.14-.953q.085-.275.229-.513.076-.127.164-.244c.169-.224.365-.393.617-.505a2.15 2.15 0 0 1 .841-.168q.464 0 .842.168c.252.112.448.28.617.477.196.224.307.476.392.757.112.308.14.645.14.981 0 .337-.056.673-.14.981-.085.28-.224.533-.392.757a1.7 1.7 0 0 1-.617.477l-.108.04-.1.033a2 2 0 0 1-.345.075l-.07.009-.064.005-.07.005-.085.001c-.147 0-.303-.015-.454-.047a2 2 0 0 1-.387-.121 1.75 1.75 0 0 1-.617-.477c-.196-.224-.308-.476-.393-.757a2 2 0 0 1-.078-.278" clip-rule="evenodd"/><path fill="#fff" d="m85.847 48.514-.205.028a4 4 0 0 1-.383.028c-.7.028-1.402-.112-2.018-.477l-.477 1.318q.16.096.328.169.28.118.568.196c.225.056.477.112.702.14l.297.028.186.015q.187.013.385.013c.983 0 1.711-.196 2.187-.56.477-.393.758-.982.73-1.599q0-.219-.024-.431a2 2 0 0 0-.117-.466 1.6 1.6 0 0 0-.42-.645 2.4 2.4 0 0 0-.701-.477 8 8 0 0 0-.23-.109l-.167-.073-.21-.087q-.191-.075-.403-.151l-.095-.04-.164-.063-.087-.033-.158-.06a2 2 0 0 1-.42-.197.8.8 0 0 1-.281-.252.5.5 0 0 1-.06-.141 1 1 0 0 1-.024-.195c-.028-.197.084-.393.252-.505.28-.14.562-.196.87-.168.308-.028.616.028.924.112.253.084.477.168.702.28l.476-1.318a3.6 3.6 0 0 0-.897-.364 5 5 0 0 0-1.29-.168 3.8 3.8 0 0 0-1.121.168q-.216.061-.412.167c-.152.08-.294.177-.43.282-.223.196-.42.42-.532.7-.086.173-.14.367-.17.562q-.017.12-.023.237l-.003.127c-.028.308.028.589.168.869q.055.126.13.233c.097.146.215.271.347.384a3 3 0 0 0 .645.42l.134.059.187.076.107.04.135.049.166.057q.63.168 1.177.504a.66.66 0 0 1 .299.364q.037.106.037.225c0 .112-.028.196-.055.308a.6.6 0 0 1-.196.253.9.9 0 0 1-.366.168M76.204 17.73l-7.738 7.738a2.327 2.327 0 0 0-.028 3.252l7.738 7.738c.925.898 2.383.898 3.28 0l7.738-7.71c.898-.925.898-2.383 0-3.28l-7.71-7.738c-.925-.897-2.382-.897-3.28 0"/></svg>