<svg xmlns="http://www.w3.org/2000/svg" width="50" height="16" fill="none"><path fill="#fff" fill-opacity=".6" d="M47.62.287H50v11.019h-2.38V9.719q-1.344 1.873-3.857 1.873-2.27 0-3.879-1.675-1.608-1.697-1.609-4.12 0-2.447 1.61-4.122Q41.492 0 43.762 0q2.512 0 3.857 1.851zM41.647 8.33q.992.99 2.49.991 1.5 0 2.491-.991.992-1.014.992-2.535 0-1.52-.992-2.512-.992-1.014-2.49-1.014-1.5 0-2.49 1.014-.992.99-.992 2.512 0 1.521.991 2.535M34.854.287h2.336v10.512q0 2.512-1.653 3.857Q33.884 16 31.527 16q-3.813 0-5.224-2.667l2.05-1.19q.86 1.697 3.217 1.697 1.544 0 2.403-.815.88-.794.881-2.226V9.455q-1.344 1.917-3.834 1.917-2.337 0-3.945-1.653-1.61-1.675-1.61-4.033t1.61-4.011Q28.683 0 31.02 0q2.49 0 3.834 1.917zm-6.016 7.867q1.014.992 2.512.992 1.5 0 2.49-.992 1.014-.991 1.014-2.468T33.84 3.218q-.99-.993-2.49-.992-1.498 0-2.512.992-.992.991-.992 2.468t.992 2.468M18.673 3.328q0 .55.595.881.618.31 1.477.551.88.22 1.763.53.882.308 1.476 1.057.617.728.617 1.851.001 1.587-1.234 2.49-1.212.904-3.063.904-1.63 0-2.799-.683a4 4 0 0 1-1.697-1.895l2.05-1.19q.573 1.587 2.446 1.586 1.873.001 1.873-1.234 0-.528-.617-.86-.595-.33-1.476-.55a30 30 0 0 1-1.741-.551 3.5 3.5 0 0 1-1.5-1.014q-.594-.727-.594-1.83 0-1.52 1.146-2.445Q18.562 0 20.282 0q1.366 0 2.424.617 1.08.595 1.653 1.675l-2.005 1.124Q21.78 2.16 20.282 2.16q-.683 0-1.146.308-.463.287-.463.86M9.42 11.592q-2.424 0-4.121-1.675-1.697-1.674-1.697-4.12t1.697-4.122Q6.995 0 9.419 0q2.447 0 4.122 1.675 1.697 1.675 1.697 4.121T13.54 9.917q-1.675 1.675-4.121 1.675M6.973 8.286q.992.992 2.447.992t2.446-.992q.992-.99.992-2.49t-.992-2.49q-.992-.992-2.446-.992t-2.447.992q-.99.99-.991 2.49 0 1.5.991 2.49"/><circle cx="1.716" cy="2.01" r="1.282" fill="#fff" fill-opacity=".6"/><circle cx="1.716" cy="9.522" r="1.282" fill="#fff" fill-opacity=".6"/></svg>