<svg xmlns="http://www.w3.org/2000/svg" width="40" height="40" fill="none"><path fill="#FE3F21" d="M20 0c11.046 0 20 8.954 20 20s-8.954 20-20 20S0 31.046 0 20 8.954 0 20 0m8.35 7.906c-.818 0-1.52.468-1.847 1.17l-4.842-1.03a.6.6 0 0 0-.398.071c-.117.07-.187.187-.234.327l-1.473 6.971c-3.111.094-5.895 1.006-7.907 2.48a2.95 2.95 0 0 0-2.011-.819A2.925 2.925 0 0 0 6.714 20c0 1.193.701 2.2 1.73 2.667a5.6 5.6 0 0 0-.07.889c0 4.49 5.217 8.117 11.673 8.117s11.673-3.626 11.673-8.117c0-.304-.024-.585-.07-.866A3.03 3.03 0 0 0 33.332 20a2.925 2.925 0 0 0-2.924-2.924c-.795 0-1.497.304-2.011.819-1.989-1.427-4.749-2.363-7.79-2.48L21.94 9.17l4.328.912a2.083 2.083 0 0 0 2.082 1.988 2.087 2.087 0 0 0 2.082-2.082 2.087 2.087 0 0 0-2.082-2.082m-4.116 18.9c.21-.21.561-.21.772 0 .164.235.163.563-.047.773-1.427 1.427-4.14 1.52-4.936 1.52-.795 0-3.532-.116-4.935-1.52a.55.55 0 0 1 0-.772.55.55 0 0 1 .771 0c.89.889 2.808 1.216 4.188 1.216s3.275-.328 4.187-1.216M15.415 20c1.146 0 2.082.936 2.082 2.082a2.087 2.087 0 0 1-2.082 2.082 2.087 2.087 0 0 1-2.082-2.082c0-1.146.936-2.082 2.082-2.082m9.17 0c1.146 0 2.082.936 2.082 2.082a2.087 2.087 0 0 1-2.082 2.082 2.087 2.087 0 0 1-2.082-2.082c0-1.146.936-2.082 2.082-2.082"/></svg>