<svg width="20" height="20" viewBox="0 0 20 20" fill="none" xmlns="http://www.w3.org/2000/svg">
<path d="M10.834 7.49984H14.584L14.1673 9.1665H10.834V16.6665H9.16732V9.1665H5.83398V7.49984H9.16732V5.93965C9.16732 4.45378 9.32207 3.91497 9.61257 3.37176C9.90307 2.82855 10.3294 2.40224 10.8726 2.11173C11.4158 1.82121 11.9546 1.6665 13.4405 1.6665C13.8755 1.6665 14.2567 1.70817 14.584 1.7915V3.33317H13.4405C12.3374 3.33317 12.0015 3.39804 11.6586 3.58141C11.4058 3.7166 11.2174 3.905 11.0822 4.15776C10.8988 4.50064 10.834 4.83656 10.834 5.93965V7.49984Z" fill="white"/>
</svg>
