<svg width="20" height="20" viewBox="0 0 20 20" fill="none" xmlns="http://www.w3.org/2000/svg">
<path d="M10.0013 7.95821C10.7656 7.17756 11.7606 6.6665 12.918 6.6665C15.4492 6.6665 17.5013 8.7185 17.5013 11.2498V17.4998H15.8347V11.2498C15.8347 9.639 14.5288 8.33317 12.918 8.33317C11.3072 8.33317 10.0013 9.639 10.0013 11.2498V17.4998H8.33465V7.08317H10.0013V7.95821ZM4.16797 5.4165C3.47761 5.4165 2.91797 4.85686 2.91797 4.1665C2.91797 3.47615 3.47761 2.9165 4.16797 2.9165C4.85832 2.9165 5.41797 3.47615 5.41797 4.1665C5.41797 4.85686 4.85832 5.4165 4.16797 5.4165ZM3.33464 7.08317H5.0013V17.4998H3.33464V7.08317Z" fill="white"/>
</svg>
