<svg width="40" height="40" viewBox="0 0 40 40" fill="none" xmlns="http://www.w3.org/2000/svg">
<path d="M20 0C31.0457 1.03081e-06 40 8.95431 40 20C40 31.0457 31.0457 40 20 40C8.95431 40 1.03088e-06 31.0457 0 20C0 8.95431 8.95431 0 20 0ZM28.3506 7.90625C27.532 7.90637 26.8304 8.3745 26.5029 9.07617L21.6611 8.04688C21.5208 8.02348 21.3797 8.04701 21.2627 8.11719C21.146 8.18736 21.076 8.30423 21.0293 8.44434L19.5557 15.415C16.4447 15.5086 13.6611 16.421 11.6494 17.8945C11.1349 17.4034 10.4095 17.0762 9.6377 17.0762C8.02368 17.0762 6.7139 18.386 6.71387 20C6.71387 21.193 7.4151 22.1992 8.44434 22.667C8.39758 22.9476 8.37402 23.2517 8.37402 23.5557C8.37406 28.0469 13.5908 31.6729 20.0469 31.6729C26.503 31.6728 31.7197 28.0469 31.7197 23.5557C31.7197 23.2517 31.6962 22.971 31.6494 22.6904C32.6084 22.2226 33.333 21.1929 33.333 20C33.333 18.386 32.0232 17.0762 30.4092 17.0762C29.6139 17.0762 28.912 17.38 28.3975 17.8945C26.4092 16.4678 23.6491 15.532 20.6084 15.415L21.9414 9.16992L26.2686 10.082C26.3154 11.1813 27.2279 12.0702 28.3506 12.0703C29.4968 12.0703 30.4326 11.1345 30.4326 9.98828C30.4326 8.84212 29.4968 7.90625 28.3506 7.90625ZM24.2344 26.8066C24.4449 26.5966 24.7955 26.5965 25.0059 26.8066C25.1696 27.0406 25.1695 27.3686 24.959 27.5791C23.5321 29.0059 20.8188 29.0996 20.0234 29.0996C19.2281 29.0996 16.4914 28.9825 15.0879 27.5791C14.8774 27.3686 14.8774 27.0172 15.0879 26.8066C15.2983 26.5965 15.6489 26.5966 15.8594 26.8066C16.7483 27.6955 18.6668 28.0234 20.0469 28.0234C21.427 28.0234 23.3221 27.6955 24.2344 26.8066ZM15.415 20C16.5612 20 17.4971 20.9358 17.4971 22.082C17.497 23.2282 16.5612 24.1641 15.415 24.1641C14.269 24.164 13.3331 23.2281 13.333 22.082C13.333 20.9359 14.2689 20.0001 15.415 20ZM24.585 20C25.7311 20.0001 26.667 20.9359 26.667 22.082C26.6669 23.2281 25.7311 24.164 24.585 24.1641C23.4388 24.1641 22.503 23.2282 22.5029 22.082C22.5029 20.9358 23.4388 20 24.585 20Z" fill="#FE3F21"/>
</svg>
