<?xml version="1.0" encoding="UTF-8"?><!DOCTYPE svg PUBLIC "-//W3C//DTD SVG 1.1//EN" "http://www.w3.org/Graphics/SVG/1.1/DTD/svg11.dtd"><svg xmlns="http://www.w3.org/2000/svg" xmlns:xlink="http://www.w3.org/1999/xlink"><symbol id="chevron-up"><g fill="none"><path d="m18 15-6-6-6 6" stroke="currentColor" stroke-width="2" stroke-linecap="round" stroke-linejoin="round"/></g></symbol><symbol id="icon-arrow-down"><g fill="none"><mask id="a" style="mask-type:alpha" maskUnits="userSpaceOnUse" x="0" y="0" width="24" height="24"><path fill="#D9D9D9" d="M0 0h24v24H0z"/></mask><g mask="url(#a)"><path d="m12 15.4-6-6L7.4 8l4.6 4.6L16.6 8 18 9.4l-6 6Z" fill="#7A7F82"/></g></g></symbol><symbol id="icon-arrow-left"><g fill="none"><path d="M8.928 17.48.448 9 8.927.52l1.58 1.626L4.78 7.875h18.773v2.25H4.78l5.729 5.729-1.58 1.627Z" fill="#fff"/></g></symbol><symbol id="icon-arrow-narrow-right"><g fill="none"><path d="M5.333 16h21.334m0 0-8-8m8 8-8 8" stroke="currentColor" stroke-width="2" stroke-linecap="round" stroke-linejoin="round"/></g></symbol><symbol id="icon-arrow-right"><g fill="none"><path d="m14.77 17.48-1.582-1.626 5.73-5.729H.75v-2.25h18.167l-5.729-5.729L14.77.52 23.25 9l-8.48 8.48Z" fill="#fff"/></g></symbol><symbol id="icon-arrow-up-right"><g fill="none"><path d="M7 17 17 7m0 0H7m10 0v10" stroke="#fff" stroke-width="2" stroke-linecap="round" stroke-linejoin="round"/></g></symbol><symbol id="icon-arrow-up"><g fill="none"><path d="M10 15.833V4.167m0 0L4.167 10M10 4.167 15.833 10" stroke="currentColor" stroke-width="1.5" stroke-linecap="round" stroke-linejoin="round"/></g></symbol><symbol id="icon-chat"><g fill="none"><path d="M17.5 9.583a7.083 7.083 0 0 1-9.63 6.612 2.417 2.417 0 0 0-.273-.096.753.753 0 0 0-.156-.02c-.059-.003-.123.003-.253.017l-4.267.441c-.407.042-.61.063-.73-.01a.417.417 0 0 1-.195-.291c-.022-.14.075-.32.27-.679l1.363-2.523c.112-.208.168-.312.194-.412a.75.75 0 0 0 .023-.27c-.008-.104-.053-.237-.143-.505A7.083 7.083 0 1 1 17.5 9.583Z" stroke="currentColor" stroke-width="1.5" stroke-linecap="round" stroke-linejoin="round"/></g></symbol><symbol id="icon-facebook"><g fill="none"><path d="M10.834 7.5h3.75l-.417 1.666h-3.333v7.5H9.167v-7.5H5.834V7.5h3.333V5.94c0-1.486.155-2.025.446-2.568.29-.543.716-.97 1.26-1.26.543-.29 1.082-.446 2.568-.446.434 0 .816.042 1.143.126v1.541h-1.143c-1.104 0-1.44.065-1.782.248a1.363 1.363 0 0 0-.577.577c-.183.343-.248.679-.248 1.782V7.5Z" fill="#fff"/></g></symbol><symbol id="icon-instagram"><g fill="none"><path d="M10.001 7.5a2.5 2.5 0 1 0 0 5 2.5 2.5 0 0 0 0-5Zm0-1.667a4.166 4.166 0 1 1 0 8.333 4.166 4.166 0 0 1 0-8.333Zm5.417-.209a1.042 1.042 0 0 1-2.083 0 1.042 1.042 0 0 1 2.083 0Zm-5.417-2.29c-2.062 0-2.398.005-3.357.047-.653.031-1.091.119-1.498.277-.362.14-.623.308-.9.586-.28.279-.447.539-.587.9-.158.409-.246.846-.276 1.498-.043.92-.048 1.242-.048 3.358 0 2.062.005 2.398.048 3.357.03.653.118 1.092.276 1.498.14.362.309.623.585.9.28.28.541.448.9.586.412.16.85.247 1.5.277.92.043 1.242.049 3.357.049 2.062 0 2.399-.006 3.357-.049.652-.03 1.091-.118 1.498-.276a2.43 2.43 0 0 0 .9-.585c.28-.28.448-.541.587-.9.159-.41.247-.849.277-1.5.043-.92.048-1.241.048-3.357 0-2.062-.005-2.398-.048-3.357-.03-.652-.12-1.092-.277-1.499a2.427 2.427 0 0 0-.585-.9 2.403 2.403 0 0 0-.902-.586c-.407-.159-.845-.247-1.497-.277-.92-.043-1.242-.048-3.358-.048Zm0-1.667c2.264 0 2.547.008 3.436.05.886.04 1.491.18 2.023.387.549.212 1.013.498 1.476.961.462.463.749.929.961 1.477.206.53.346 1.136.388 2.022.04.89.05 1.172.05 3.436 0 2.264-.009 2.546-.05 3.435-.041.887-.182 1.492-.388 2.023a4.072 4.072 0 0 1-.961 1.477c-.463.462-.93.748-1.476.96-.532.206-1.137.346-2.023.388-.89.04-1.172.05-3.436.05-2.264 0-2.546-.008-3.435-.05-.887-.04-1.491-.182-2.023-.387a4.076 4.076 0 0 1-1.476-.961 4.088 4.088 0 0 1-.962-1.477c-.206-.531-.345-1.136-.387-2.023-.04-.889-.05-1.171-.05-3.435 0-2.264.008-2.547.05-3.436.04-.887.181-1.491.387-2.022a4.066 4.066 0 0 1 .962-1.477 4.08 4.08 0 0 1 1.476-.961c.531-.206 1.135-.346 2.023-.388.889-.04 1.171-.05 3.435-.05Z" fill="#fff"/></g></symbol><symbol id="icon-linkedin"><g fill="none"><path d="M10.001 7.958c.765-.78 1.76-1.292 2.917-1.292a4.583 4.583 0 0 1 4.583 4.584v6.25h-1.666v-6.25a2.917 2.917 0 0 0-5.834 0v6.25H8.335V7.083H10v.875ZM4.168 5.416a1.25 1.25 0 1 1 0-2.5 1.25 1.25 0 0 1 0 2.5Zm-.833 1.667H5V17.5H3.335V7.083Z" fill="#fff"/></g></symbol><symbol id="icon-location"><g fill="none"><path d="M10 10.833a2.5 2.5 0 1 0 0-5 2.5 2.5 0 0 0 0 5Z" stroke="currentColor" stroke-width="1.667" stroke-linecap="round" stroke-linejoin="round"/><path d="M10 18.333c3.333-3.333 6.667-6.318 6.667-10a6.667 6.667 0 0 0-13.334 0c0 3.682 3.334 6.667 6.667 10Z" stroke="currentColor" stroke-width="1.667" stroke-linecap="round" stroke-linejoin="round"/></g></symbol><symbol id="icon-minus"><g fill="none"><path d="M4.167 10h11.666" stroke="currentColor" stroke-width="1.667" stroke-linecap="round" stroke-linejoin="round"/></g></symbol><symbol id="icon-plus"><g fill="none"><path d="M10 4.167v11.666M4.167 10h11.666" stroke="currentColor" stroke-width="1.667" stroke-linecap="round" stroke-linejoin="round"/></g></symbol><symbol id="icon-quote" viewBox="0 0 24 24"><g fill="none"><path d="M8.72 18.806H2.668L8.365 5.333h3.858L8.72 18.806Zm9.616 0h-6.054L17.98 5.333h3.858l-3.502 13.473Z" fill="currentColor"/></g></symbol><symbol id="icon-twitter-x"><g fill="none"><path d="m8.74 12.21 3.969 5.29h5.833l-6.548-8.731L17.443 2.5h-2.208L10.97 7.405 7.292 2.5H1.46l6.259 8.345L1.933 17.5h2.209l4.599-5.29Zm4.802 3.623L4.792 4.167H6.46l8.75 11.666h-1.667Z" fill="#fff"/></g></symbol><symbol id="icon-v-line"><g fill="none"><path stroke="currentColor" d="M.5 0v12"/></g></symbol></svg>