<?xml version="1.0" encoding="UTF-8"?><!DOCTYPE svg PUBLIC "-//W3C//DTD SVG 1.1//EN" "http://www.w3.org/Graphics/SVG/1.1/DTD/svg11.dtd"><svg xmlns="http://www.w3.org/2000/svg" xmlns:xlink="http://www.w3.org/1999/xlink"><defs><clipPath id="a"><path fill="#fff" transform="translate(.521)" d="M0 0h71v36H0z"/></clipPath><clipPath id="b"><path fill="#fff" transform="translate(1.207 .095)" d="M0 0h70.184v35.197H0z"/></clipPath></defs><symbol id="chain-wire-logo"><g fill="none"><g clip-path="url(#a)"><g clip-path="url(#b)"><path d="M15.012 25.983a.733.733 0 1 1 1.2.84l-4.615 6.592-.22.313h-9.2l.824-1.157 4.688-6.593a.733.733 0 0 1 1.194.85l-3.865 5.435h5.597l4.397-6.28ZM32.364 1.289a.88.88 0 0 1 1.343.747v29.107a.88.88 0 0 1-1.335.752l-.11-.08-1.902-1.602a37.36 37.36 0 0 0-9.967-6.023l-1.04-.424H8.361v-9.084h1.465V22.3h3.81v-5.274H15.1V22.3h3.663V9.951l.443-.191 1.322-.567.657-.29a37.36 37.36 0 0 0 9.03-5.772l2.038-1.76.11-.082Zm22.293 28.849h-6.446v-6.446h6.446v6.446ZM31.175 4.24a38.824 38.824 0 0 1-10.068 6.298l-.878.377V22.54l.717.293a38.827 38.827 0 0 1 10.359 6.26l.937.79V3.316l-1.067.923Zm18.5 24.433h3.517v-3.516h-3.516v3.516Zm-10.028-7.11 4.62 4.62h3.359v1.466H43.66l-4.835-4.835h-3.432v-1.465h4.039l.215.215Zm30.834 4.18h-6.446v-6.446h6.446v6.446ZM65.5 24.28h3.517v-3.517H65.5v3.517ZM15.1 14.242h-1.464V11.9H3.306V22.3h2.638v1.465H1.842V10.434H15.1v3.808Zm48.35-2.856h-3.494l-5.23 5.549 5.22 5.219h3.505v1.464h-4.113l-.214-.213-5.719-5.72H40.812V16.22h12.574l5.72-6.07.217-.229h4.126v1.465Zm-23.88 7.179h-3.517v-3.517h3.516v3.517Zm30.911-4.689h-6.446V7.43h6.446v6.446ZM65.5 12.411h3.517V8.895H65.5v3.516ZM47.626 7.43h-3.358l-4.621 4.62-.215.215h-4.04V10.8h3.433l4.835-4.835h3.966V7.43Zm7.031 2.49h-6.446V3.474h6.446V9.92Zm-4.981-1.465h3.516V4.94h-3.516v3.516Z" fill="#120833"/></g></g></g></symbol><symbol id="chevron-up"><g fill="none"><path d="m18 15-6-6-6 6" stroke="currentColor" stroke-width="2" stroke-linecap="round" stroke-linejoin="round"/></g></symbol><symbol id="icon-arrow-left" viewBox="0 0 25 24"><g fill="none"><path d="M19.836 11.987h-14m0 0 7 7m-7-7 7-7" stroke="currentColor" stroke-width="1.5" stroke-linecap="round" stroke-linejoin="round"/></g></symbol><symbol id="icon-arrow-narrow-right"><g fill="none"><path d="M5.333 16h21.334m0 0-8-8m8 8-8 8" stroke="currentColor" stroke-width="2" stroke-linecap="round" stroke-linejoin="round"/></g></symbol><symbol id="icon-arrow-right"><g fill="none"><path d="m14.77 17.48-1.582-1.626 5.73-5.729H.75v-2.25h18.167l-5.729-5.729L14.77.52 23.25 9l-8.48 8.48Z" fill="#fff"/></g></symbol><symbol id="icon-arrow-up-right"><g fill="none"><path d="M7 17 17 7m0 0H7m10 0v10" stroke="#fff" stroke-width="2" stroke-linecap="round" stroke-linejoin="round"/></g></symbol><symbol id="icon-arrow-up"><g fill="none"><path d="M10 15.833V4.167m0 0L4.167 10M10 4.167 15.833 10" stroke="currentColor" stroke-width="1.5" stroke-linecap="round" stroke-linejoin="round"/></g></symbol><symbol id="icon-chat"><g fill="none"><path d="M17.5 9.583a7.083 7.083 0 0 1-9.63 6.612 2.417 2.417 0 0 0-.273-.096.753.753 0 0 0-.156-.02c-.059-.003-.123.003-.253.017l-4.267.441c-.407.042-.61.063-.73-.01a.417.417 0 0 1-.195-.291c-.022-.14.075-.32.27-.679l1.363-2.523c.112-.208.168-.312.194-.412a.75.75 0 0 0 .023-.27c-.008-.104-.053-.237-.143-.505A7.083 7.083 0 1 1 17.5 9.583Z" stroke="currentColor" stroke-width="1.5" stroke-linecap="round" stroke-linejoin="round"/></g></symbol><symbol id="icon-chevron-down" viewBox="0 0 24 24"><g fill="none"><mask id="a" style="mask-type:alpha" maskUnits="userSpaceOnUse" x="0" y="0" width="24" height="24"><path fill="#D9D9D9" d="M0 0h24v24H0z"/></mask><g mask="url(#a)"><path d="m12 15.4-6-6L7.4 8l4.6 4.6L16.6 8 18 9.4l-6 6Z" fill="currentColor"/></g></g></symbol><symbol id="icon-facebook" viewBox="0 0 20 20"><g fill="none"><path d="M10.833 7.5h3.75l-.416 1.667h-3.334v7.5H9.167v-7.5H5.833V7.5h3.334V5.94c0-1.486.154-2.025.445-2.568.29-.543.717-.97 1.26-1.26.543-.29 1.082-.445 2.568-.445.435 0 .816.041 1.143.125v1.541H13.44c-1.103 0-1.44.065-1.782.249a1.362 1.362 0 0 0-.576.576c-.184.343-.249.679-.249 1.782V7.5Z" fill="currentColor"/></g></symbol><symbol id="icon-instagram" viewBox="0 0 20 20"><g fill="none"><path d="M10 7.5a2.5 2.5 0 1 0 0 5 2.5 2.5 0 0 0 0-5Zm0-1.667a4.166 4.166 0 1 1 .001 8.333 4.166 4.166 0 0 1 0-8.333Zm5.418-.209a1.042 1.042 0 0 1-2.084 0 1.042 1.042 0 0 1 2.084 0ZM10 3.334c-2.062 0-2.398.005-3.357.048-.654.03-1.092.118-1.499.276-.362.14-.622.308-.9.586-.28.279-.447.54-.586.9-.159.409-.247.846-.277 1.499-.043.92-.048 1.241-.048 3.357 0 2.062.006 2.398.048 3.357.031.653.119 1.092.277 1.498.14.362.308.624.585.9.28.28.54.448.9.586.411.16.849.247 1.5.278.92.043 1.241.048 3.357.048 2.062 0 2.398-.006 3.357-.048.652-.031 1.09-.12 1.498-.277a2.43 2.43 0 0 0 .9-.585c.28-.28.448-.54.586-.9.16-.41.247-.849.277-1.5.043-.92.049-1.241.049-3.357 0-2.062-.006-2.398-.049-3.357-.03-.652-.119-1.092-.276-1.499a2.427 2.427 0 0 0-.586-.9 2.403 2.403 0 0 0-.901-.586c-.408-.158-.846-.246-1.498-.276-.92-.044-1.241-.049-3.357-.049Zm0-1.667c2.264 0 2.546.008 3.435.05.887.04 1.492.181 2.023.387a4.06 4.06 0 0 1 1.477.961c.462.464.748.929.96 1.477.206.53.346 1.136.388 2.023.04.889.05 1.171.05 3.435 0 2.264-.008 2.547-.05 3.435-.04.887-.182 1.492-.387 2.023a4.07 4.07 0 0 1-.961 1.477c-.464.462-.93.748-1.477.96-.531.207-1.136.347-2.023.388-.889.04-1.171.05-3.435.05-2.264 0-2.547-.008-3.436-.05-.886-.04-1.49-.181-2.023-.387a4.075 4.075 0 0 1-1.476-.961 4.086 4.086 0 0 1-.961-1.477c-.206-.53-.346-1.136-.388-2.023-.04-.888-.05-1.171-.05-3.435 0-2.264.009-2.546.05-3.435.041-.888.182-1.492.388-2.023a4.066 4.066 0 0 1 .961-1.477 4.08 4.08 0 0 1 1.476-.96c.532-.207 1.136-.347 2.023-.388.89-.04 1.172-.05 3.436-.05Z" fill="currentColor"/></g></symbol><symbol id="icon-link" viewBox="0 0 20 20"><g fill="none"><g clip-path="url(#clip0_1080_10041)"><path d="M8.333 10.833a4.166 4.166 0 0 0 6.284.45l2.5-2.5a4.167 4.167 0 0 0-5.892-5.891L9.792 4.317m1.875 4.85a4.166 4.166 0 0 0-6.284-.45l-2.5 2.5a4.166 4.166 0 0 0 5.892 5.891l1.425-1.425" stroke="currentColor" stroke-width="1.5" stroke-linecap="round" stroke-linejoin="round"/></g></g></symbol><symbol id="icon-linkedin" viewBox="0 0 20 20"><g fill="none"><path d="M10 7.958c.765-.78 1.76-1.291 2.918-1.291A4.583 4.583 0 0 1 17.5 11.25v6.25h-1.667v-6.25a2.917 2.917 0 0 0-5.833 0v6.25H8.334V7.083h1.667v.875ZM4.168 5.417a1.25 1.25 0 1 1 0-2.5 1.25 1.25 0 0 1 0 2.5Zm-.833 1.666h1.667V17.5H3.334V7.083Z" fill="currentColor"/></g></symbol><symbol id="icon-location"><g fill="none"><path d="M10 10.833a2.5 2.5 0 1 0 0-5 2.5 2.5 0 0 0 0 5Z" stroke="currentColor" stroke-width="1.667" stroke-linecap="round" stroke-linejoin="round"/><path d="M10 18.333c3.333-3.333 6.667-6.318 6.667-10a6.667 6.667 0 0 0-13.334 0c0 3.682 3.334 6.667 6.667 10Z" stroke="currentColor" stroke-width="1.667" stroke-linecap="round" stroke-linejoin="round"/></g></symbol><symbol id="icon-minus"><g fill="none"><path d="M4.167 10h11.666" stroke="currentColor" stroke-width="1.667" stroke-linecap="round" stroke-linejoin="round"/></g></symbol><symbol id="icon-plus"><g fill="none"><path d="M10 4.167v11.666M4.167 10h11.666" stroke="currentColor" stroke-width="1.667" stroke-linecap="round" stroke-linejoin="round"/></g></symbol><symbol id="icon-quote" viewBox="0 0 24 24"><g fill="none"><path d="M8.72 18.806H2.668L8.365 5.333h3.858L8.72 18.806Zm9.616 0h-6.054L17.98 5.333h3.858l-3.502 13.473Z" fill="currentColor"/></g></symbol><symbol id="icon-twitter-x" viewBox="0 0 20 20"><g fill="none"><path d="m8.74 12.21 3.968 5.29h5.834l-6.549-8.731 5.45-6.269h-2.209L10.97 7.405 7.292 2.5H1.458l6.26 8.345L1.932 17.5H4.14l4.6-5.29Zm4.802 3.623L4.792 4.167h1.666l8.75 11.666h-1.666Z" fill="currentColor"/></g></symbol><symbol id="icon-v-line"><g fill="none"><path stroke="currentColor" d="M.5 0v12"/></g></symbol></svg>